<svg width="24" height="24" viewBox="0 0 24 24" fill="none" xmlns="http://www.w3.org/2000/svg">
<path d="M19.4972 7.98905L12.0002 15.297L4.50324 7.98905C4.3693 7.8582 4.18948 7.78495 4.00224 7.78495C3.81499 7.78495 3.63518 7.8582 3.50124 7.98905C3.43638 8.05259 3.38485 8.12844 3.34968 8.21215C3.3145 8.29586 3.29639 8.38575 3.29639 8.47655C3.29639 8.56734 3.3145 8.65723 3.34968 8.74094C3.38485 8.82465 3.43638 8.9005 3.50124 8.96404L11.4767 16.74C11.6168 16.8766 11.8046 16.953 12.0002 16.953C12.1958 16.953 12.3837 16.8766 12.5237 16.74L20.4992 8.96555C20.5646 8.90195 20.6165 8.82592 20.6519 8.74193C20.6874 8.65794 20.7056 8.56771 20.7056 8.47655C20.7056 8.38538 20.6874 8.29515 20.6519 8.21116C20.6165 8.12717 20.5646 8.05114 20.4992 7.98754C20.3653 7.8567 20.1855 7.78345 19.9982 7.78345C19.811 7.78345 19.6312 7.8567 19.4972 7.98754V7.98905Z" fill="#434040"/>
</svg>
