<svg width="24" height="14" viewBox="0 0 24 14" fill="none" xmlns="http://www.w3.org/2000/svg">
<path d="M12.7477 13.2435L23.7148 1.73319C23.8979 1.54114 24 1.28598 24 1.02064C24 0.7553 23.8979 0.500143 23.7148 0.308088L23.7024 0.295695C23.6136 0.202268 23.5068 0.127874 23.3884 0.0770375C23.27 0.026201 23.1425 -1.48265e-05 23.0136 -1.48377e-05C22.8847 -1.4849e-05 22.7572 0.026201 22.6388 0.0770375C22.5204 0.127874 22.4135 0.202268 22.3248 0.295695L11.9979 11.1348L1.67522 0.295693C1.58646 0.202266 1.47963 0.127872 1.36121 0.0770356C1.2428 0.0261991 1.11528 -1.67522e-05 0.986416 -1.67634e-05C0.85755 -1.67747e-05 0.730033 0.026199 0.611619 0.0770355C0.493205 0.127872 0.38637 0.202266 0.297615 0.295693L0.285221 0.308086C0.102137 0.500141 2.3151e-06 0.755298 2.29191e-06 1.02064C2.26871e-06 1.28598 0.102137 1.54114 0.285221 1.73319L11.2523 13.2435C11.3488 13.3447 11.4648 13.4253 11.5933 13.4804C11.7218 13.5354 11.8602 13.5638 12 13.5638C12.1398 13.5638 12.2782 13.5354 12.4067 13.4804C12.5352 13.4253 12.6512 13.3447 12.7477 13.2435Z" fill="#434040"/>
</svg>
