<svg width="18" height="9" viewBox="0 0 18 9" fill="none" xmlns="http://www.w3.org/2000/svg">
<path d="M1.44487 0.241859C1.36311 0.164602 1.26694 0.104204 1.16184 0.0641136C1.05674 0.0240234 0.944778 0.00502562 0.832338 0.00820638C0.719898 0.0113871 0.609185 0.0366836 0.506522 0.0826511C0.403858 0.128619 0.311254 0.194357 0.233996 0.276114C0.156738 0.35787 0.0963396 0.454043 0.0562493 0.559141C0.0161591 0.664239 -0.00283813 0.776204 0.000342637 0.888644C0.0035234 1.00108 0.0288197 1.1118 0.0747872 1.21446C0.120755 1.31712 0.186493 1.40973 0.26825 1.48699L7.97536 8.76592C8.13436 8.91624 8.34486 9 8.56367 9C8.78247 9 8.99298 8.91624 9.15198 8.76592L16.8599 1.48699C16.9435 1.41024 17.011 1.31765 17.0584 1.21461C17.1059 1.11157 17.1324 1.00013 17.1364 0.886752C17.1405 0.773377 17.1219 0.66033 17.0819 0.55418C17.0419 0.44803 16.9811 0.350893 16.9032 0.268409C16.8254 0.185925 16.7318 0.11974 16.6282 0.0736973C16.5245 0.0276548 16.4127 0.00267343 16.2993 0.000203327C16.1858 -0.00226678 16.0731 0.0178234 15.9675 0.0593082C15.8619 0.100793 15.7656 0.162845 15.6842 0.24186L8.56367 6.96589L1.44487 0.241859Z" fill="#F4F4F4"/>
</svg>
